<svg width="20" height="13" viewBox="0 0 20 13" fill="none" xmlns="http://www.w3.org/2000/svg">
<path fill-rule="evenodd" clip-rule="evenodd" d="M18.9545 9.89544C18.8045 9.89544 18.6818 9.77216 18.6818 9.62271V1.31598C15.5476 0.964709 13.2409 1.22925 11.0094 1.48562C8.73927 1.7458 6.39272 2.01471 3.23945 1.61762C3.08999 1.59853 2.98417 1.46216 3.00272 1.31216C3.02127 1.16325 3.15927 1.06071 3.30763 1.07544C6.39504 1.46484 8.60559 1.21132 10.9452 0.942998L10.9462 0.942891L10.9498 0.942473C13.2702 0.676966 15.6683 0.402556 18.9873 0.802164C19.1247 0.818527 19.2267 0.935255 19.2267 1.0738V9.62271C19.2273 9.77216 19.1045 9.89544 18.9545 9.89544ZM17.0454 10.7136C17.0454 10.8631 17.1682 10.9863 17.3182 10.9863C17.4682 10.9863 17.5909 10.8631 17.5909 10.712V2.42544C17.5909 2.28853 17.4894 2.17289 17.3531 2.15489C14.3391 1.75852 11.9251 1.99433 9.59207 2.22224L9.58908 2.22253C7.22999 2.45325 4.79181 2.69162 1.67017 2.2978C1.52235 2.28144 1.38435 2.38562 1.36526 2.53453C1.34672 2.68507 1.45253 2.82144 1.60199 2.83998C4.78362 3.2398 7.25399 2.9998 9.64199 2.76635L9.64838 2.76572C11.9926 2.53686 14.2089 2.32048 17.0454 2.66653V10.7136ZM3.74072 12.3985C2.60072 12.3985 1.49944 12.3271 0.37308 12.1787C0.237807 12.1618 0.136353 12.0462 0.136353 11.9087V3.7258C0.136353 3.64725 0.170171 3.57307 0.22908 3.52071C0.287989 3.46889 0.365989 3.44489 0.444534 3.45525C1.54744 3.60144 2.62744 3.67125 3.74563 3.67125C5.24096 3.67125 6.58398 3.54757 8.00364 3.41683L8.02472 3.41489C9.4669 3.2818 10.9571 3.14435 12.6322 3.14435C13.848 3.14435 15.0327 3.21635 16.2589 3.36362C16.3953 3.37998 16.4984 3.49671 16.4984 3.63471V11.8171C16.4984 11.8962 16.464 11.9693 16.4067 12.0211C16.3484 12.0734 16.2698 12.0974 16.1924 12.0876C14.9874 11.9414 13.8202 11.8716 12.6278 11.8716C10.9778 11.8716 9.49963 12.008 8.06999 12.14C6.69381 12.2676 5.27017 12.3985 3.74072 12.3985ZM0.681809 11.6693C1.70181 11.7942 2.7049 11.8547 3.74072 11.8547C5.24162 11.8547 6.58767 11.7303 8.01259 11.5986L8.01262 11.5986L8.0209 11.5978C9.46308 11.4647 10.9533 11.3273 12.6294 11.3273C13.7438 11.3273 14.8347 11.3873 15.9545 11.5116V3.87744C14.8347 3.75198 13.7454 3.6898 12.6322 3.6898C10.9827 3.6898 9.50454 3.82616 8.0749 3.95816L8.04327 3.96107L8.04326 3.96107C6.67635 4.08672 5.26229 4.21671 3.74563 4.21671C2.70817 4.21671 1.70235 4.1578 0.681809 4.03507V11.6693ZM1.66307 10.9503C2.37489 11.0082 3.0638 11.036 3.76962 11.036C3.92017 11.036 4.04235 10.9143 4.04235 10.7633C4.04235 10.6133 3.92017 10.4905 3.76962 10.4905C3.07853 10.4905 2.4038 10.4633 1.70726 10.4065C1.55562 10.3967 1.42526 10.508 1.41326 10.6563C1.40126 10.8069 1.51307 10.9389 1.66307 10.9503ZM14.64 5.13744C14.6318 5.13744 14.6253 5.13744 14.6176 5.13689C13.9249 5.08016 13.2507 5.05398 12.5531 5.05398C12.4031 5.05398 12.2804 4.93125 12.2804 4.78125C12.2804 4.63071 12.4031 4.50853 12.5531 4.50853C13.266 4.50853 13.9538 4.53635 14.6613 4.59307C14.8102 4.60453 14.9225 4.73653 14.9105 4.88707C14.8985 5.02944 14.7807 5.13744 14.64 5.13744ZM8.12235 9.18505V9.62271C8.12235 9.77216 8.00017 9.89544 7.84963 9.89544C7.69963 9.89544 7.5769 9.77216 7.5769 9.62271V9.18511C7.10155 9.09295 6.79799 8.75529 6.79799 8.28798C6.79799 8.13853 6.92018 8.01525 7.07072 8.01525C7.22127 8.01525 7.34345 8.13853 7.34345 8.28798C7.34345 8.62889 7.69745 8.66489 7.84963 8.66489C8.00181 8.66489 8.35636 8.62889 8.35636 8.28798C8.35636 8.08235 8.31381 8.04307 7.85345 7.81616L7.60418 7.69235L7.60216 7.69135C7.15257 7.46928 6.79745 7.29387 6.79745 6.73071C6.79745 6.26809 7.10735 5.92311 7.57796 5.82806C7.57726 5.82012 7.5769 5.81209 7.5769 5.80398V5.25853C7.5769 5.10798 7.69963 4.9858 7.84963 4.9858C8.00017 4.9858 8.12235 5.10798 8.12235 5.25853V5.80398C8.12235 5.81196 8.12201 5.81986 8.12133 5.82768C8.59084 5.92123 8.89036 6.26134 8.89036 6.73071C8.89036 6.88071 8.76818 7.00344 8.61763 7.00344C8.46708 7.00344 8.3449 6.88071 8.3449 6.73071C8.3449 6.38435 7.99799 6.34726 7.84908 6.34726C7.73018 6.34726 7.3429 6.37507 7.3429 6.73071C7.3429 6.9358 7.38545 6.97562 7.84527 7.20253L8.09454 7.32689C8.54563 7.54835 8.90181 7.72453 8.90181 8.28798C8.90135 8.75477 8.5974 9.09272 8.12235 9.18505Z" fill="#FFC620"/>
</svg>
