<svg width="15" height="17" viewBox="0 0 15 17" fill="none" xmlns="http://www.w3.org/2000/svg">
<path fill-rule="evenodd" clip-rule="evenodd" d="M5.66182 11.1905C4.64133 10.3848 3.94009 9.02304 3.8596 7.7769C3.43524 7.66181 3.10524 7.28162 3.10524 6.85781V5.49417C3.10524 5.10526 3.44779 4.80635 3.6507 4.66344V3.44871C3.6507 2.14726 4.55997 1.16108 5.77524 1.13108C6.02288 1.02853 7.07615 0.618896 8.1507 0.618896C9.82142 0.618896 10.7416 1.62417 10.7416 3.44871V4.54671C11.6503 4.59853 11.8325 4.92744 11.8325 5.49417V6.85781C11.8325 7.30344 11.5712 7.65962 11.1922 7.77362C11.0776 9.73562 9.53397 11.9038 7.56651 11.9038C7.05014 11.9038 6.55901 11.7535 6.11298 11.4971C6.11222 11.4983 6.11146 11.4995 6.11069 11.5007L5.1016 13.0744C5.05142 13.1529 4.96524 13.1993 4.87196 13.1993H3.84924C2.28815 13.1993 0.712874 14.0213 0.712874 15.8584C0.712874 16.0094 0.590692 16.1311 0.440147 16.1311C0.289601 16.1311 0.167419 16.0089 0.167419 15.8584C0.167419 13.9411 1.64669 12.6538 3.84924 12.6538H4.72305L5.65142 11.2056C5.65474 11.2004 5.65821 11.1954 5.66182 11.1905ZM8.1507 1.1649C7.08739 1.1649 6.00746 1.62546 5.94542 1.65192L5.9427 1.65308C5.90833 1.6689 5.8707 1.67653 5.83252 1.67653C4.88452 1.67653 4.19615 2.42217 4.19615 3.44926V4.8129C4.19615 4.91108 4.1427 5.00217 4.05761 5.05071C3.88688 5.14726 3.6507 5.35562 3.6507 5.49471V6.85835C3.6507 7.06835 3.88088 7.26744 4.1247 7.26744C4.27524 7.26744 4.39742 7.38962 4.39742 7.54017C4.39742 9.26981 5.81124 11.3584 7.56652 11.3584C9.27706 11.3584 10.6543 9.26926 10.6543 7.54017C10.6543 7.38962 10.7765 7.26744 10.9271 7.26744C11.1742 7.26744 11.2871 7.05526 11.2871 6.85835V5.49471C11.2871 5.20508 11.2871 5.08562 10.4689 5.08562C10.3183 5.08562 10.1962 4.96344 10.1962 4.8129V3.44926C10.1962 1.91217 9.52688 1.1649 8.1507 1.1649ZM12.378 15.9265C12.378 16.0771 12.5001 16.1993 12.6507 16.1993C12.8012 16.1993 12.9234 16.0776 12.9234 15.9265V14.2902H14.5598C14.7103 14.2902 14.8325 14.168 14.8325 14.0174C14.8325 13.8669 14.7098 13.7447 14.5598 13.7447H12.9234V12.1084C12.9234 11.9578 12.8007 11.8356 12.6507 11.8356C12.5001 11.8356 12.378 11.9578 12.378 12.1084V13.7447H10.7416C10.5911 13.7447 10.4689 13.8669 10.4689 14.0174C10.4689 14.168 10.5911 14.2902 10.7416 14.2902H12.378V15.9265Z" fill="#663399"/>
</svg>
