<svg width="17" height="17" viewBox="0 0 17 17" fill="none" xmlns="http://www.w3.org/2000/svg">
<path fill-rule="evenodd" clip-rule="evenodd" d="M8.42383 16.1736C4.12728 16.1736 0.631462 12.686 0.631462 8.4009C0.631462 4.30017 3.95601 0.821265 8.04201 0.644538C8.11619 0.641811 8.18874 0.668538 8.24219 0.719811C8.29619 0.771629 8.32619 0.842538 8.32619 0.91672V7.74581L13.352 2.75599C13.4562 2.65236 13.6247 2.65072 13.7306 2.75054C15.314 4.24345 16.1862 6.25017 16.1862 8.4009C16.1873 12.6865 12.704 16.1736 8.42383 16.1736ZM7.78074 1.2069C4.11365 1.51617 1.17692 4.68417 1.17692 8.40036C1.17692 12.3854 4.42783 15.6276 8.42383 15.6276C12.4035 15.6276 15.6413 12.3854 15.6413 8.40036C15.6413 6.48854 14.8995 4.6989 13.5456 3.33145L8.24546 8.59345C8.16692 8.67145 8.04965 8.6949 7.94819 8.65127C7.84619 8.60872 7.78019 8.50999 7.78019 8.39981L7.78074 1.2069ZM9.14437 5.65617C9.11001 5.65617 9.07401 5.64963 9.04074 5.63545C8.93874 5.59345 8.87164 5.49363 8.87164 5.38345V0.965811C8.87164 0.886174 8.90601 0.811992 8.96546 0.76072C9.02383 0.708356 9.10292 0.684356 9.18146 0.695265C10.3607 0.854538 11.5782 1.30672 12.518 1.93399C12.5862 1.97927 12.6304 2.0529 12.638 2.13417C12.6462 2.2149 12.6178 2.29617 12.5595 2.35399L9.33746 5.57545C9.28455 5.62836 9.21583 5.65617 9.14437 5.65617ZM9.4171 1.2849V4.72508L11.9316 2.21054C11.1898 1.7709 10.3024 1.44417 9.4171 1.2849Z" fill="#5DAE49"/>
</svg>
