<svg width="18" height="15" viewBox="0 0 18 15" fill="none" xmlns="http://www.w3.org/2000/svg">
<path fill-rule="evenodd" clip-rule="evenodd" d="M13.602 3.16925H11.6929C11.1665 3.16925 10.7384 2.74106 10.7384 2.2147V1.94197C10.7384 1.41561 11.1665 0.987427 11.6929 0.987427H13.602C14.1284 0.987427 14.5565 1.41561 14.5565 1.94197V2.2147C14.5565 2.74052 14.1278 3.16925 13.602 3.16925ZM11.6929 1.53288C11.4671 1.53288 11.2838 1.71615 11.2838 1.94197V2.2147C11.2838 2.44052 11.4671 2.62379 11.6929 2.62379H13.602C13.8278 2.62379 14.0111 2.44052 14.0111 2.2147V1.94197C14.0111 1.71615 13.8278 1.53288 13.602 1.53288H11.6929ZM5.01109 14.0783H1.19291C1.04236 14.0783 0.920181 13.9556 0.920181 13.8056V7.80561C0.920181 7.65506 1.04236 7.53288 1.19291 7.53288H5.01109C5.16164 7.53288 5.28382 7.65506 5.28382 7.80561V8.62657C7.27251 8.68556 8.28501 9.33508 8.96018 9.7687L8.96109 9.76928C9.27371 9.97025 9.49982 10.1156 9.68727 10.1156C9.76799 10.1156 9.86649 10.1119 9.97772 10.1077L10.0282 10.1058C10.8567 10.0742 12.1096 10.0294 12.6638 10.6682C12.8345 10.8645 12.9213 11.1029 12.9235 11.3805C13.4108 11.3413 14.0376 10.8286 14.5555 10.405L14.5565 10.4042L14.5611 10.4005C15.1055 9.95547 15.5362 9.60343 15.9316 9.60343C16.836 9.60343 17.3542 10.1374 17.3542 11.0696C17.3525 12.3945 12.474 14.9216 10.4755 14.9216C9.32193 14.9216 7.884 14.2429 6.7269 13.6968L6.72164 13.6943L6.71793 13.6926C6.16731 13.4327 5.6398 13.1838 5.28382 13.0784V13.8056C5.28382 13.9556 5.16109 14.0783 5.01109 14.0783ZM4.73837 12.8311V13.5329H1.46564V8.07834H4.73837V12.6745C4.73091 12.6993 4.72691 12.7256 4.72691 12.7529C4.72691 12.78 4.73091 12.8063 4.73837 12.8311ZM5.28382 12.5161C5.70308 12.61 6.27158 12.8782 6.95455 13.2007C8.06346 13.7249 9.44346 14.3762 10.476 14.3762C12.4031 14.3762 16.8082 11.914 16.8082 11.0691C16.8082 10.4412 16.5289 10.1483 15.9305 10.1483C15.7303 10.1483 15.276 10.5196 14.9072 10.821L14.9013 10.8258C14.166 11.428 13.3336 12.1087 12.5531 11.8845C12.5353 11.8795 12.5184 11.8728 12.5025 11.8646C12.4644 11.885 12.4209 11.8965 12.3747 11.8965H8.01109C7.86055 11.8965 7.73836 11.7738 7.73836 11.6238C7.73836 11.4738 7.86055 11.3511 8.01109 11.3511H12.3747L12.3765 11.3511C12.3696 11.2201 12.3285 11.1125 12.252 11.0249C11.8709 10.5839 10.6914 10.6264 10.0539 10.6494L10.0478 10.6496L9.9656 10.6526C9.86015 10.6565 9.76617 10.66 9.68782 10.66C9.34185 10.66 9.04509 10.4701 8.67045 10.2305L8.66564 10.2274L8.66546 10.2273C8.0059 9.80369 7.10974 9.2281 5.28382 9.17222V12.5161ZM8.42019 5.89652H10.3293C10.8551 5.89652 11.2838 5.46779 11.2838 4.94197V4.66925C11.2838 4.14288 10.8556 3.7147 10.3293 3.7147H8.42019C7.89382 3.7147 7.46564 4.14288 7.46564 4.66925V4.94197C7.46564 5.46834 7.89382 5.89652 8.42019 5.89652ZM8.0111 4.66925C8.0111 4.44343 8.19437 4.26015 8.42019 4.26015H10.3293C10.5551 4.26015 10.7384 4.44343 10.7384 4.66925V4.94197C10.7384 5.16779 10.5551 5.35106 10.3293 5.35106H8.42019C8.19437 5.35106 8.0111 5.16779 8.0111 4.94197V4.66925ZM13.602 8.62379H11.6929C11.1665 8.62379 10.7384 8.19561 10.7384 7.66924V7.39652C10.7384 6.87015 11.1665 6.44197 11.6929 6.44197H13.602C14.1284 6.44197 14.5565 6.87015 14.5565 7.39652V7.66924C14.5565 8.19506 14.1278 8.62379 13.602 8.62379ZM11.6929 6.98743C11.4671 6.98743 11.2838 7.1707 11.2838 7.39652V7.66924C11.2838 7.89506 11.4671 8.07834 11.6929 8.07834H13.602C13.8278 8.07834 14.0111 7.89506 14.0111 7.66924V7.39652C14.0111 7.1707 13.8278 6.98743 13.602 6.98743H11.6929Z" fill="#3981F7"/>
</svg>
